<svg width="450" height="376" viewBox="0 0 450 376" fill="none" xmlns="http://www.w3.org/2000/svg">
<path d="M161.084 136.455L117.536 111.314L92.3936 154.86L135.942 180.002L161.084 136.455Z" fill="#EEEEEE"/>
<path d="M384.625 114.316C405.028 114.316 421.569 97.7763 421.569 77.3734C421.569 56.9705 405.028 40.4307 384.625 40.4307C364.221 40.4307 347.681 56.9705 347.681 77.3734C347.681 97.7763 364.221 114.316 384.625 114.316Z" fill="#0582FA"/>
<path d="M362.036 26.1458C366.64 37.4362 378.359 43.3321 378.359 43.3321C378.359 43.3321 382.612 30.9226 378.007 19.6322C373.402 8.34177 361.684 2.44592 361.684 2.44592C361.684 2.44592 357.431 14.8554 362.036 26.1458Z" fill="#0254A3"/>
<path d="M366.369 23.0612C376.084 30.4298 378.748 43.2744 378.748 43.2744C378.748 43.2744 365.66 44.1723 355.945 36.8038C346.229 29.4353 343.565 16.5906 343.565 16.5906C343.565 16.5906 356.653 15.6927 366.369 23.0612Z" fill="#0582FA"/>
<path d="M380.207 19.6923C375.695 31.0201 380.05 43.3943 380.05 43.3943C380.05 43.3943 391.72 37.4026 396.232 26.0748C400.744 14.747 396.389 2.3728 396.389 2.3728C396.389 2.3728 384.719 8.36454 380.207 19.6923Z" fill="#0254A3"/>
<path d="M385.468 20.4746C387.358 32.5206 380.37 43.6223 380.37 43.6223C380.37 43.6223 370.317 35.1937 368.428 23.1477C366.538 11.1018 373.526 0 373.526 0C373.526 0 383.579 8.42863 385.468 20.4746Z" fill="#0582FA"/>
<path d="M382.593 92.4731C393.078 92.4731 401.578 83.9735 401.578 73.4886C401.578 63.0038 393.078 54.5042 382.593 54.5042C372.107 54.5042 363.607 63.0038 363.607 73.4886C363.607 83.9735 372.107 92.4731 382.593 92.4731Z" fill="#F2F2F2"/>
<path d="M374.618 74.3514C378.019 74.3514 380.776 71.5947 380.776 68.1942C380.776 64.7937 378.019 62.0371 374.618 62.0371C371.218 62.0371 368.461 64.7937 368.461 68.1942C368.461 71.5947 371.218 74.3514 374.618 74.3514Z" fill="#0254A3"/>
<path d="M438.711 305.23C436.479 305.23 434.296 304.568 432.44 303.328C430.583 302.087 429.137 300.325 428.282 298.262C427.428 296.199 427.204 293.93 427.64 291.74C428.075 289.55 429.15 287.539 430.729 285.96C432.308 284.382 434.319 283.307 436.509 282.871C438.699 282.435 440.969 282.659 443.031 283.513C445.094 284.368 446.857 285.814 448.097 287.671C449.338 289.527 450 291.71 450 293.942C449.996 296.935 448.806 299.804 446.69 301.92C444.574 304.036 441.704 305.227 438.711 305.23ZM438.711 283.68C436.682 283.68 434.698 284.282 433.01 285.41C431.322 286.537 430.007 288.14 429.23 290.015C428.454 291.89 428.25 293.953 428.646 295.944C429.042 297.935 430.02 299.763 431.455 301.198C432.89 302.634 434.719 303.611 436.709 304.007C438.7 304.403 440.763 304.2 442.639 303.423C444.514 302.646 446.116 301.331 447.244 299.643C448.372 297.956 448.974 295.972 448.974 293.942C448.971 291.221 447.888 288.613 445.965 286.689C444.041 284.765 441.432 283.683 438.711 283.68Z" fill="#0254A3"/>
<path d="M137.001 188.758C134.769 188.758 132.586 188.096 130.73 186.855C128.873 185.615 127.427 183.852 126.572 181.789C125.718 179.727 125.494 177.457 125.93 175.268C126.365 173.078 127.44 171.067 129.019 169.488C130.598 167.909 132.609 166.834 134.799 166.399C136.989 165.963 139.259 166.187 141.321 167.041C143.384 167.895 145.147 169.342 146.387 171.198C147.628 173.055 148.29 175.237 148.29 177.47C148.286 180.462 147.096 183.332 144.98 185.448C142.864 187.564 139.994 188.754 137.001 188.758ZM137.001 167.208C134.972 167.208 132.988 167.81 131.3 168.937C129.612 170.065 128.297 171.668 127.52 173.543C126.744 175.418 126.54 177.481 126.936 179.472C127.332 181.462 128.31 183.291 129.745 184.726C131.18 186.161 133.009 187.138 134.999 187.534C136.99 187.93 139.053 187.727 140.929 186.95C142.804 186.174 144.407 184.858 145.534 183.171C146.662 181.483 147.264 179.499 147.264 177.47C147.261 174.749 146.178 172.141 144.255 170.217C142.331 168.293 139.722 167.211 137.001 167.208Z" fill="#0254A3"/>
<path d="M408.201 82.8741L348.178 149.864C351.405 152.368 354.082 155.509 356.042 159.092C358.003 162.675 359.204 166.624 359.572 170.692C359.94 174.759 359.466 178.859 358.181 182.736C356.895 186.613 354.825 190.184 352.099 193.226C349.374 196.268 346.051 198.716 342.338 200.418C338.625 202.12 334.601 203.039 330.517 203.119C326.434 203.198 322.377 202.436 318.601 200.88C314.824 199.323 311.409 197.006 308.567 194.072L224.959 287.385C249.065 306.119 278.736 316.268 309.265 316.222C385.29 316.222 446.921 254.594 446.921 178.571C446.967 142.848 433.076 108.515 408.201 82.8741Z" fill="#EEEEEE"/>
<path d="M330.958 192.863C340.876 192.863 348.917 184.822 348.917 174.904C348.917 164.986 340.876 156.946 330.958 156.946C321.04 156.946 312.999 164.986 312.999 174.904C312.999 184.822 321.04 192.863 330.958 192.863Z" fill="#EEEEEE"/>
<path d="M237.041 54.2598C246.614 54.2598 254.375 46.4997 254.375 36.9271C254.375 27.3546 246.614 19.5945 237.041 19.5945C227.468 19.5945 219.708 27.3546 219.708 36.9271C219.708 46.4997 227.468 54.2598 237.041 54.2598Z" fill="#2F2E41"/>
<path d="M204.445 159.434L208.466 237.843C208.466 237.843 207.796 294.136 211.817 294.806C215.838 295.476 223.21 300.167 225.221 296.816C227.232 293.466 237.284 190.262 237.284 190.262C237.284 190.262 239.965 297.487 248.007 298.157C256.049 298.827 265.432 294.806 266.772 295.476C268.113 296.146 267.442 161.445 267.442 161.445L204.445 159.434Z" fill="#2F2E41"/>
<path d="M216.509 294.136C216.509 294.136 211.818 294.136 210.477 296.146C209.137 298.157 204.446 308.209 204.446 308.209C204.446 308.209 195.733 316.209 205.116 316.879C214.498 317.549 219.19 315.581 219.19 314.241C219.19 312.9 219.19 309.549 221.2 308.879C223.211 308.209 225.221 304.858 225.221 303.518C225.221 302.178 223.211 293.466 216.509 294.136Z" fill="#0254A3"/>
<path d="M252.698 294.806C252.698 294.806 249.347 308.209 252.698 308.879C256.049 309.549 258.06 310.89 258.73 312.9C259.4 314.911 266.102 317.235 271.463 316.565C276.825 315.895 279.506 312.23 277.495 310.22C275.484 308.209 265.432 296.816 264.762 294.806C264.091 292.796 252.698 294.806 252.698 294.806Z" fill="#0254A3"/>
<path d="M229.242 49.5287C229.242 49.5287 227.902 59.581 225.221 60.9213C222.541 62.2617 226.562 69.6334 226.562 69.6334L238.625 71.6439L249.348 62.9318C249.348 62.9318 247.337 50.1988 247.337 49.5287C247.337 48.8585 229.242 49.5287 229.242 49.5287Z" fill="#E1A5A6"/>
<path d="M236.615 58.2407C245.498 58.2407 252.699 51.0397 252.699 42.1569C252.699 33.2741 245.498 26.0731 236.615 26.0731C227.731 26.0731 220.53 33.2741 220.53 42.1569C220.53 51.0397 227.731 58.2407 236.615 58.2407Z" fill="#FFB8B9"/>
<path d="M236.279 69.2983C236.279 69.2983 229.578 57.9056 226.227 58.5757C222.876 59.2459 212.488 60.9213 211.148 60.2511C209.807 59.581 201.095 90.4082 201.095 90.4082C201.095 90.4082 191.712 151.392 197.744 158.764C203.776 166.136 224.551 162.115 227.232 169.487C229.913 176.858 272.134 165.466 272.134 161.445C272.134 157.424 272.804 95.7694 273.474 91.0783C274.145 86.3872 267.443 61.5914 267.443 61.5914C267.443 61.5914 251.694 57.2354 249.013 58.5757C246.332 59.916 244.992 63.937 236.279 69.2983Z" fill="#0582FA"/>
<path d="M212.488 62.2616L211.147 60.2512C211.147 60.2512 197.074 62.2616 193.052 61.5915C189.031 60.9213 176.968 62.2616 176.968 62.2616C176.968 62.2616 179.649 54.8899 182.329 54.2198C185.01 53.5496 188.361 51.5391 188.361 51.5391C188.361 51.5391 181.659 41.4868 188.361 38.136C188.361 38.136 157.533 50.1988 155.522 61.5915C153.512 72.9841 202.435 90.4082 202.435 90.4082L212.488 62.2616Z" fill="#0582FA"/>
<path d="M262.081 62.9318L267.443 61.5914L294.25 64.2721L285.537 54.8899C285.537 54.8899 290.899 48.1883 287.548 44.8375C287.548 44.8375 323.068 58.2407 319.047 66.9527C315.025 75.6647 272.804 91.0784 270.793 91.7485C268.783 92.4187 262.081 62.9318 262.081 62.9318Z" fill="#0582FA"/>
<path d="M192.012 39.9407C193.671 40.2702 195.089 41.3065 196.446 42.3154C197.763 43.2557 199.025 44.2694 200.227 45.3517C206.322 51.0497 208.563 59.6466 210.501 67.7617C209.121 68.9246 206.868 67.9576 205.941 66.4087C205.015 64.8599 204.951 62.9682 204.587 61.2006C204.223 59.433 203.333 57.5334 201.613 56.9873C201.975 58.1092 201.102 59.3277 200.01 59.7732C198.919 60.2186 197.69 60.0956 196.518 59.9652C195.973 59.9354 195.438 59.8134 194.934 59.6044C194.024 59.1646 193.493 58.2187 192.998 57.3381C191.708 55.0431 190.289 52.823 188.748 50.6885C188.398 50.137 187.943 49.6602 187.408 49.2857C185.261 47.9753 182.956 46.2615 184.025 43.1506C184.907 40.5827 189.67 39.4756 192.012 39.9407Z" fill="#FFB8B9"/>
<path d="M281.117 43.9292C278.705 44.0494 276.625 45.6191 274.859 47.266C267.467 54.2062 262.708 63.4926 261.39 73.5458C261.304 74.2198 261.277 75.0134 261.794 75.4553C262.374 75.9522 263.331 75.658 263.807 75.0609C264.226 74.4182 264.487 73.6864 264.571 72.9243C265.04 70.6454 265.839 68.4472 266.944 66.3995C267.51 65.3494 268.298 64.2437 269.476 64.0578C271.232 63.781 272.544 65.6399 274.221 66.2286C276.2 66.9233 278.417 65.6791 279.62 63.9612C280.823 62.2433 281.293 60.1373 281.956 58.1475C282.619 56.158 283.602 54.1176 285.41 53.0564C287.336 51.9264 291.77 51.1413 289.89 47.9699C288.523 45.6653 283.641 43.8035 281.117 43.9292Z" fill="#FFB8B9"/>
<path d="M219.194 33.2572C219.194 33.2572 214.92 22.1448 221.118 18.5119L222.827 23.427C222.827 23.427 238.428 14.0242 242.488 16.1612L238.642 21.29C238.642 21.29 256.807 21.29 258.089 28.3421L251.678 28.5558C251.678 28.5558 258.516 33.0435 258.73 40.3093L245.053 41.1641L251.678 45.0107C251.678 45.0107 226.888 48.4299 220.904 38.5997L219.194 33.2572Z" fill="#2F2E41"/>
<path d="M177.974 45.8428L188.026 37.8009C188.026 37.8009 184.676 47.8533 188.026 51.204L175.293 53.8847L177.974 45.8428Z" fill="#0582FA"/>
<path d="M295.255 50.5338L286.543 43.8323C286.543 43.8323 287.883 52.5443 285.203 54.5548C282.522 56.5653 292.575 57.2354 292.575 57.2354L295.255 50.5338Z" fill="#0582FA"/>
<path d="M92.1726 334.755C112.576 334.755 129.117 318.215 129.117 297.812C129.117 277.409 112.576 260.87 92.1726 260.87C71.769 260.87 55.2285 277.409 55.2285 297.812C55.2285 318.215 71.769 334.755 92.1726 334.755Z" fill="#0582FA"/>
<path d="M57.1134 254.161C64.4794 263.878 77.3238 266.546 77.3238 266.546C77.3238 266.546 78.2255 253.459 70.8595 243.742C63.4935 234.025 50.6491 231.357 50.6491 231.357C50.6491 231.357 49.7474 244.444 57.1134 254.161Z" fill="#0254A3"/>
<path d="M60.5015 250.062C71.791 254.67 77.6837 266.39 77.6837 266.39C77.6837 266.39 65.2725 270.639 53.983 266.031C42.6935 261.423 36.8008 249.703 36.8008 249.703C36.8008 249.703 49.212 245.454 60.5015 250.062Z" fill="#0582FA"/>
<path d="M73.0002 243.232C71.5685 255.341 78.9728 266.169 78.9728 266.169C78.9728 266.169 88.6982 257.366 90.1299 245.257C91.5615 233.148 84.1572 222.319 84.1572 222.319C84.1572 222.319 74.4318 231.123 73.0002 243.232Z" fill="#0254A3"/>
<path d="M78.2845 242.628C83.2229 253.776 79.3407 266.307 79.3407 266.307C79.3407 266.307 67.4518 260.762 62.5134 249.613C57.5751 238.465 61.4573 225.934 61.4573 225.934C61.4573 225.934 73.3462 231.479 78.2845 242.628Z" fill="#0582FA"/>
<path d="M77.9178 318.7C88.403 318.7 96.903 310.2 96.903 299.715C96.903 289.23 88.403 280.731 77.9178 280.731C67.4326 280.731 58.9326 289.23 58.9326 299.715C58.9326 310.2 67.4326 318.7 77.9178 318.7Z" fill="#F2F2F2"/>
<path d="M70.7159 311.897C74.1166 311.897 76.8733 309.14 76.8733 305.74C76.8733 302.339 74.1166 299.583 70.7159 299.583C67.3153 299.583 64.5586 302.339 64.5586 305.74C64.5586 309.14 67.3153 311.897 70.7159 311.897Z" fill="#0254A3"/>
<path d="M237.571 317.544C257.975 317.544 274.515 301.005 274.515 280.602C274.515 260.199 257.975 243.659 237.571 243.659C217.167 243.659 200.627 260.199 200.627 280.602C200.627 301.005 217.167 317.544 237.571 317.544Z" fill="#0582FA"/>
<path d="M221.441 226.989C224.625 238.759 235.532 246.049 235.532 246.049C235.532 246.049 241.276 234.255 238.092 222.485C234.907 210.715 224.001 203.425 224.001 203.425C224.001 203.425 218.257 215.219 221.441 226.989Z" fill="#0254A3"/>
<path d="M226.12 224.459C234.857 232.965 235.924 246.039 235.924 246.039C235.924 246.039 222.825 245.324 214.088 236.819C205.35 228.314 204.283 215.239 204.283 215.239C204.283 215.239 217.382 215.954 226.12 224.459Z" fill="#0582FA"/>
<path d="M240.268 222.815C234.399 233.503 237.202 246.318 237.202 246.318C237.202 246.318 249.519 241.804 255.388 231.116C261.256 220.427 258.454 207.612 258.454 207.612C258.454 207.612 246.136 212.126 240.268 222.815Z" fill="#0254A3"/>
<path d="M245.392 224.237C245.789 236.423 237.491 246.584 237.491 246.584C237.491 246.584 228.549 236.985 228.152 224.798C227.756 212.611 236.054 202.451 236.054 202.451C236.054 202.451 244.995 212.05 245.392 224.237Z" fill="#0582FA"/>
<path d="M236.032 295.481C246.517 295.481 255.017 286.982 255.017 276.497C255.017 266.012 246.517 257.512 236.032 257.512C225.547 257.512 217.047 266.012 217.047 276.497C217.047 286.982 225.547 295.481 236.032 295.481Z" fill="#F2F2F2"/>
<path d="M236.032 271.879C239.433 271.879 242.19 269.122 242.19 265.722C242.19 262.321 239.433 259.565 236.032 259.565C232.632 259.565 229.875 262.321 229.875 265.722C229.875 269.122 232.632 271.879 236.032 271.879Z" fill="#0254A3"/>
<path d="M339.681 316.518H147.264V317.544H339.681V316.518Z" fill="#0582FA"/>
<path d="M417.417 103.071C423.227 103.071 427.936 99.3956 427.936 94.8616C427.936 90.3276 423.227 86.6521 417.417 86.6521C411.608 86.6521 406.898 90.3276 406.898 94.8616C406.898 99.3956 411.608 103.071 417.417 103.071Z" fill="#0582FA"/>
<path d="M127.887 278.686C132.971 274.578 138.235 270.705 143.677 267.068L127.887 278.686Z" fill="#0582FA"/>
<path d="M139.108 277.593C145.051 274.767 150.472 270.957 155.143 266.322L139.108 277.593Z" fill="#0582FA"/>
<path d="M96.9782 332.937C102.079 332.937 106.214 328.802 106.214 323.702C106.214 318.601 102.079 314.466 96.9782 314.466C91.8773 314.466 87.7422 318.601 87.7422 323.702C87.7422 328.802 91.8773 332.937 96.9782 332.937Z" fill="#0254A3"/>
<path d="M50.7982 376C78.8532 376 101.596 373.26 101.596 369.88C101.596 366.5 78.8532 363.76 50.7982 363.76C22.7431 363.76 0 366.5 0 369.88C0 373.26 22.7431 376 50.7982 376Z" fill="#EEEEEE"/>
<path d="M324.288 317.031C322.055 317.031 319.872 316.369 318.016 315.129C316.16 313.889 314.713 312.126 313.858 310.063C313.004 308 312.78 305.731 313.216 303.541C313.652 301.351 314.727 299.34 316.305 297.761C317.884 296.183 319.895 295.108 322.085 294.672C324.275 294.237 326.545 294.46 328.607 295.314C330.67 296.169 332.433 297.616 333.674 299.472C334.914 301.328 335.576 303.511 335.576 305.743C335.573 308.736 334.382 311.605 332.266 313.721C330.15 315.838 327.28 317.028 324.288 317.031ZM324.288 295.481C322.258 295.481 320.274 296.083 318.586 297.211C316.898 298.338 315.583 299.941 314.806 301.816C314.03 303.691 313.826 305.755 314.222 307.745C314.618 309.736 315.596 311.564 317.031 313C318.466 314.435 320.295 315.412 322.285 315.808C324.276 316.204 326.34 316.001 328.215 315.224C330.09 314.447 331.693 313.132 332.82 311.444C333.948 309.757 334.55 307.773 334.55 305.743C334.547 303.023 333.465 300.414 331.541 298.49C329.617 296.567 327.008 295.484 324.288 295.481Z" fill="#0254A3"/>
</svg>
